<svg xmlns="http://www.w3.org/2000/svg" width="22" height="23" viewBox="0 0 22 23" fill="none">
  <g clip-path="url(#clip0_114_5402)">
    <path d="M22 11.2783C22 5.20318 17.0751 0.27832 11 0.27832C4.92486 0.27832 0 5.20318 0 11.2783C0 16.7687 4.02252 21.3195 9.28125 22.1447V14.458H6.48828V11.2783H9.28125V8.85489C9.28125 6.09801 10.9235 4.5752 13.4361 4.5752C14.6392 4.5752 15.8984 4.79004 15.8984 4.79004V7.49707H14.5114C13.145 7.49707 12.7188 8.34506 12.7188 9.21582V11.2783H15.7695L15.2818 14.458H12.7188V22.1447C17.9775 21.3195 22 16.7687 22 11.2783Z" fill="#1877F2"/>
    <path d="M15.2818 14.458L15.7695 11.2783H12.7188V9.21582C12.7188 8.34592 13.145 7.49707 14.5114 7.49707H15.8984V4.79004C15.8984 4.79004 14.6397 4.5752 13.4361 4.5752C10.9235 4.5752 9.28125 6.09801 9.28125 8.85488V11.2783H6.48828V14.458H9.28125V22.1447C10.4202 22.3229 11.5798 22.3229 12.7188 22.1447V14.458H15.2818Z" fill="white"/>
  </g>
  <defs>
    <clipPath id="clip0_114_5402">
      <rect width="22" height="22" fill="white" transform="translate(0 0.27832)"/>
    </clipPath>
  </defs>
</svg>