<svg xmlns="http://www.w3.org/2000/svg" width="52" height="52" viewBox="0 0 52 52" fill="none">
  <circle cx="25.6504" cy="25.6716" r="25" fill="url(#paint0_linear_114_5494)"/>
  <path d="M18.144 35.1324C17.5648 35.1324 17.0688 34.9256 16.6561 34.5118C16.244 34.0974 16.038 33.5994 16.038 33.018V18.2168C16.038 17.6353 16.244 17.1373 16.6561 16.7229C17.0688 16.3092 17.5648 16.1023 18.144 16.1023H32.8859C33.465 16.1023 33.961 16.3092 34.3738 16.7229C34.7859 17.1373 34.9919 17.6353 34.9919 18.2168V33.018C34.9919 33.5994 34.7859 34.0974 34.3738 34.5118C33.961 34.9256 33.465 35.1324 32.8859 35.1324H18.144ZM18.144 33.018H32.8859V18.2168H18.144V33.018ZM21.3029 30.9035C21.6013 30.9035 21.8516 30.802 22.0537 30.599C22.2552 30.3967 22.3559 30.1458 22.3559 29.8463V26.6746C22.3559 26.375 22.2552 26.1238 22.0537 25.9208C21.8516 25.7185 21.6013 25.6174 21.3029 25.6174C21.0046 25.6174 20.7543 25.7185 20.5522 25.9208C20.3507 26.1238 20.2499 26.375 20.2499 26.6746V29.8463C20.2499 30.1458 20.3507 30.3967 20.5522 30.599C20.7543 30.802 21.0046 30.9035 21.3029 30.9035ZM29.7269 30.9035C30.0253 30.9035 30.2752 30.802 30.4766 30.599C30.6788 30.3967 30.7799 30.1458 30.7799 29.8463V21.3884C30.7799 21.0889 30.6788 20.8376 30.4766 20.6346C30.2752 20.4324 30.0253 20.3312 29.7269 20.3312C29.4286 20.3312 29.1787 20.4324 28.9772 20.6346C28.775 20.8376 28.6739 21.0889 28.6739 21.3884V29.8463C28.6739 30.1458 28.775 30.3967 28.9772 30.599C29.1787 30.802 29.4286 30.9035 29.7269 30.9035ZM25.5149 30.9035C25.8133 30.9035 26.0635 30.802 26.2657 30.599C26.4672 30.3967 26.5679 30.1458 26.5679 29.8463V28.789C26.5679 28.4895 26.4672 28.2382 26.2657 28.0352C26.0635 27.833 25.8133 27.7318 25.5149 27.7318C25.2166 27.7318 24.9667 27.833 24.7652 28.0352C24.563 28.2382 24.4619 28.4895 24.4619 28.789V29.8463C24.4619 30.1458 24.563 30.3967 24.7652 30.599C24.9667 30.802 25.2166 30.9035 25.5149 30.9035ZM25.5149 25.6174C25.8133 25.6174 26.0635 25.5159 26.2657 25.3129C26.4672 25.1106 26.5679 24.8597 26.5679 24.5601C26.5679 24.2606 26.4672 24.0093 26.2657 23.8063C26.0635 23.604 25.8133 23.5029 25.5149 23.5029C25.2166 23.5029 24.9667 23.604 24.7652 23.8063C24.563 24.0093 24.4619 24.2606 24.4619 24.5601C24.4619 24.8597 24.563 25.1106 24.7652 25.3129C24.9667 25.5159 25.2166 25.6174 25.5149 25.6174ZM18.144 33.018V18.2168V33.018Z" fill="white"/>
  <defs>
    <linearGradient id="paint0_linear_114_5494" x1="21.0098" y1="-0.806288" x2="33.8063" y2="47.2652" gradientUnits="userSpaceOnUse">
      <stop stop-color="#4A9223"/>
      <stop offset="1" stop-color="#BFD64A"/>
    </linearGradient>
  </defs>
</svg>