<svg xmlns="http://www.w3.org/2000/svg" width="22" height="23" viewBox="0 0 22 23" fill="none">
  <g clip-path="url(#clip0_114_5412)">
    <path d="M20.376 0.27832H1.62403C1.19331 0.27832 0.780231 0.449423 0.475667 0.753987C0.171103 1.05855 0 1.47163 0 1.90235V20.6543C0 21.085 0.171103 21.4981 0.475667 21.8027C0.780231 22.1072 1.19331 22.2783 1.62403 22.2783H20.376C20.8067 22.2783 21.2198 22.1072 21.5243 21.8027C21.8289 21.4981 22 21.085 22 20.6543V1.90235C22 1.47163 21.8289 1.05855 21.5243 0.753987C21.2198 0.449423 20.8067 0.27832 20.376 0.27832ZM6.55722 19.0196H3.24958V8.51304H6.55722V19.0196ZM4.90111 7.05707C4.52592 7.05496 4.15976 6.94175 3.84884 6.73173C3.53792 6.52172 3.29619 6.22431 3.15414 5.87704C3.01209 5.52976 2.97609 5.1482 3.0507 4.78049C3.1253 4.41278 3.30715 4.07541 3.57331 3.81095C3.83947 3.5465 4.178 3.36682 4.54618 3.29458C4.91436 3.22234 5.29569 3.26078 5.64204 3.40506C5.98839 3.54933 6.28424 3.79297 6.49226 4.10523C6.70027 4.41749 6.81113 4.78437 6.81083 5.15957C6.81437 5.41077 6.7673 5.66011 6.67243 5.89272C6.57755 6.12534 6.43682 6.33648 6.25861 6.51355C6.0804 6.69062 5.86836 6.83 5.63514 6.92338C5.40192 7.01675 5.15228 7.06222 4.90111 7.05707ZM18.7489 19.0287H15.4428V13.2889C15.4428 11.5961 14.7232 11.0736 13.7943 11.0736C12.8135 11.0736 11.851 11.813 11.851 13.3317V19.0287H8.54333V8.52068H11.7242V9.97666H11.7669C12.0863 9.3304 13.2046 8.22582 14.9111 8.22582C16.7567 8.22582 18.7504 9.32124 18.7504 12.5296L18.7489 19.0287Z" fill="#0A66C2"/>
  </g>
  <defs>
    <clipPath id="clip0_114_5412">
      <rect width="22" height="22" fill="white" transform="translate(0 0.27832)"/>
    </clipPath>
  </defs>
</svg>