<svg xmlns="http://www.w3.org/2000/svg" width="22" height="23" viewBox="0 0 22 23" fill="none">
  <path d="M11 2.25918C13.9391 2.25918 14.2871 2.27207 15.443 2.32363C16.5172 2.3709 17.0973 2.55137 17.484 2.70176C17.9953 2.89941 18.3648 3.14004 18.7473 3.52246C19.134 3.90918 19.3703 4.27441 19.568 4.78574C19.7183 5.17246 19.8988 5.75683 19.9461 6.82676C19.9976 7.98691 20.0105 8.33496 20.0105 11.2697C20.0105 14.2088 19.9976 14.5568 19.9461 15.7127C19.8988 16.7869 19.7183 17.367 19.568 17.7537C19.3703 18.265 19.1297 18.6346 18.7473 19.017C18.3605 19.4037 17.9953 19.64 17.484 19.8377C17.0973 19.9881 16.5129 20.1686 15.443 20.2158C14.2828 20.2674 13.9348 20.2803 11 20.2803C8.06093 20.2803 7.71289 20.2674 6.55703 20.2158C5.48281 20.1686 4.90273 19.9881 4.51601 19.8377C4.00469 19.64 3.63515 19.3994 3.25273 19.017C2.86601 18.6303 2.62969 18.265 2.43203 17.7537C2.28164 17.367 2.10117 16.7826 2.05391 15.7127C2.00234 14.5525 1.98945 14.2045 1.98945 11.2697C1.98945 8.33066 2.00234 7.98261 2.05391 6.82676C2.10117 5.75254 2.28164 5.17246 2.43203 4.78574C2.62969 4.27441 2.87031 3.90488 3.25273 3.52246C3.63945 3.13574 4.00469 2.89941 4.51601 2.70176C4.90273 2.55137 5.48711 2.3709 6.55703 2.32363C7.71289 2.27207 8.06093 2.25918 11 2.25918ZM11 0.27832C8.01367 0.27832 7.63984 0.291211 6.46679 0.342773C5.29804 0.394336 4.49453 0.583398 3.79844 0.854101C3.07226 1.1377 2.45781 1.51152 1.84766 2.12598C1.2332 2.73613 0.859375 3.35059 0.575781 4.07246C0.305078 4.77285 0.116016 5.57207 0.0644531 6.74082C0.0128906 7.91816 0 8.29199 0 11.2783C0 14.2646 0.0128906 14.6385 0.0644531 15.8115C0.116016 16.9803 0.305078 17.7838 0.575781 18.4799C0.859375 19.2061 1.2332 19.8205 1.84766 20.4307C2.45781 21.0408 3.07226 21.4189 3.79414 21.6982C4.49453 21.9689 5.29375 22.158 6.4625 22.2096C7.63554 22.2611 8.00937 22.274 10.9957 22.274C13.982 22.274 14.3559 22.2611 15.5289 22.2096C16.6976 22.158 17.5012 21.9689 18.1973 21.6982C18.9191 21.4189 19.5336 21.0408 20.1437 20.4307C20.7539 19.8205 21.132 19.2061 21.4113 18.4842C21.682 17.7838 21.8711 16.9846 21.9226 15.8158C21.9742 14.6428 21.9871 14.2689 21.9871 11.2826C21.9871 8.29629 21.9742 7.92246 21.9226 6.74941C21.8711 5.58066 21.682 4.77715 21.4113 4.08105C21.1406 3.35059 20.7668 2.73613 20.1523 2.12598C19.5422 1.51582 18.9277 1.1377 18.2059 0.858398C17.5055 0.587695 16.7062 0.398633 15.5375 0.34707C14.3601 0.291211 13.9863 0.27832 11 0.27832Z" fill="#EC3397"/>
  <path d="M11 5.62793C7.88047 5.62793 5.34961 8.15879 5.34961 11.2783C5.34961 14.3979 7.88047 16.9287 11 16.9287C14.1195 16.9287 16.6504 14.3979 16.6504 11.2783C16.6504 8.15879 14.1195 5.62793 11 5.62793ZM11 14.9436C8.97617 14.9436 7.33477 13.3021 7.33477 11.2783C7.33477 9.25449 8.97617 7.61309 11 7.61309C13.0238 7.61309 14.6652 9.25449 14.6652 11.2783C14.6652 13.3021 13.0238 14.9436 11 14.9436Z" fill="#EC3397"/>
  <path d="M18.193 5.40459C18.193 6.13506 17.6 6.72374 16.8738 6.72374C16.1434 6.72374 15.5547 6.13077 15.5547 5.40459C15.5547 4.67412 16.1477 4.08545 16.8738 4.08545C17.6 4.08545 18.193 4.67842 18.193 5.40459Z" fill="#EC3397"/>
</svg>