<svg xmlns="http://www.w3.org/2000/svg" width="36" height="37" viewBox="0 0 36 37" fill="none">
  <path d="M17.9531 29.79C24.4922 29.79 29.9062 24.3643 29.9062 17.8369C29.9062 11.2979 24.4805 5.88379 17.9414 5.88379C11.4141 5.88379 6 11.2979 6 17.8369C6 24.3643 11.4258 29.79 17.9531 29.79ZM14.6836 15.5752C14.6367 15.1182 14.4375 14.708 14.1211 14.415C15.1523 11.8018 16.793 9.43457 18.9375 7.52441C19.1016 7.53613 19.2656 7.55957 19.4297 7.58301C17.8945 10.1729 16.9688 13.0791 16.7461 16.0908C16.043 15.9736 15.3516 15.7979 14.6836 15.5752ZM9.28125 12.2119C10.957 9.65723 13.7344 7.85254 16.8984 7.52441C15.1172 9.3877 13.7344 11.5557 12.7969 13.9111C12.4688 13.9111 12.1172 14.0283 11.8125 14.2275C10.8984 13.665 10.043 12.9854 9.28125 12.2119ZM20.1445 12.3525C20.1562 13.4189 20.2852 14.4736 20.5312 15.4932C20.3203 15.7041 20.168 15.9736 20.0859 16.2666C19.793 16.29 19.5 16.3018 19.1953 16.3018C18.8438 16.3018 18.4922 16.29 18.1523 16.2666C18.3516 13.3955 19.2305 10.6533 20.6953 8.22754C20.3086 9.55176 20.1328 10.9346 20.1445 12.3525ZM21.5625 12.3408C21.5508 10.9932 21.7383 9.64551 22.1367 8.37988C24.4336 9.41113 26.3086 11.2744 27.3633 13.5596C26.1328 14.4971 24.75 15.2002 23.2734 15.6689C22.957 15.2354 22.4414 14.9541 21.8555 14.9424C21.6797 14.0986 21.5742 13.2314 21.5625 12.3408ZM7.59375 17.8369C7.59375 16.3018 7.93359 14.8486 8.55469 13.5244C9.31641 14.251 10.1484 14.8955 11.0508 15.4346C11.0273 15.5283 11.0273 15.6338 11.0273 15.7393C11.0273 16.3604 11.332 16.9111 11.8125 17.251C11.5664 18.4697 11.4375 19.7354 11.4375 21.0127C10.0898 20.3564 8.80078 19.5244 7.61719 18.5283C7.60547 18.2939 7.59375 18.0713 7.59375 17.8369ZM28.3125 17.8369C28.3125 18.8447 28.1602 19.8291 27.8789 20.7549C27.1992 21.1182 26.4961 21.4346 25.7695 21.7041C24.6445 20.6846 23.707 19.4658 23.0039 18.1182C23.3203 17.8486 23.5312 17.4736 23.6133 17.0518C25.1367 16.583 26.5781 15.8799 27.8906 14.9424C28.1602 15.8682 28.3125 16.8408 28.3125 17.8369ZM16.6875 17.5908C16.6875 19.1143 16.8633 20.6143 17.2031 22.0791C17.0039 22.2314 16.8398 22.4307 16.7227 22.6533C15.4102 22.4541 14.1094 22.1143 12.8555 21.6338C12.8203 20.2393 12.9258 18.8682 13.1953 17.5439C13.6172 17.4619 13.9805 17.2393 14.25 16.9229C15.0352 17.1924 15.8555 17.3916 16.6875 17.5205C16.6875 17.5439 16.6875 17.5674 16.6875 17.5908ZM19.1953 17.7197C19.5703 17.7197 19.9336 17.708 20.2852 17.6729C20.5664 18.1416 21.0586 18.4697 21.6328 18.54C22.3008 19.8877 23.1914 21.1299 24.2578 22.1963C22.875 22.583 21.4688 22.7939 20.0508 22.8408C19.8047 22.2197 19.2422 21.7744 18.5625 21.6924C18.2695 20.3916 18.1055 19.0439 18.1055 17.6846C18.4688 17.708 18.832 17.7197 19.1953 17.7197ZM7.98047 20.6143C9.08203 21.3994 10.2539 22.0674 11.4844 22.5947C11.5312 23.8486 11.7188 25.0908 12.0469 26.3096C10.1016 24.9385 8.63672 22.9346 7.98047 20.6143ZM17.9531 28.1963C16.5117 28.1963 15.1172 27.8916 13.8633 27.3291C13.3711 25.9932 13.0547 24.5986 12.9375 23.1689C14.1328 23.5791 15.3516 23.8838 16.6055 24.0596C16.8281 24.7744 17.4844 25.29 18.2695 25.3252C18.668 26.2627 19.1484 27.1768 19.6992 28.0439C19.125 28.1377 18.5508 28.1963 17.9531 28.1963ZM19.6055 24.833C19.7695 24.6689 19.9102 24.4697 20.0039 24.2588C21.8555 24.2002 23.707 23.8955 25.4883 23.3096C25.7461 23.5205 26.0273 23.7197 26.2969 23.9189C25.0195 25.6533 23.2266 26.9893 21.1406 27.6807C20.543 26.7783 20.0273 25.8174 19.6055 24.833Z" fill="#83C427"/>
</svg>