<svg xmlns="http://www.w3.org/2000/svg" width="22" height="23" viewBox="0 0 22 23" fill="none">
  <path d="M6.91856 20.2165C15.2205 20.2165 19.7613 13.3384 19.7613 7.37376C19.7613 7.1784 19.7613 6.98392 19.7481 6.79032C20.6315 6.15136 21.394 5.36021 22 4.45392C21.1763 4.81912 20.3024 5.05851 19.4075 5.16408C20.3498 4.60004 21.0551 3.71279 21.3919 2.66752C20.5059 3.19332 19.5366 3.56386 18.5258 3.76312C17.8452 3.03948 16.9452 2.5603 15.9648 2.39974C14.9845 2.23918 13.9786 2.40619 13.1028 2.87492C12.227 3.34364 11.53 4.08796 11.1198 4.99269C10.7097 5.89741 10.6091 6.91211 10.8337 7.87976C9.03915 7.78974 7.28361 7.32337 5.681 6.51092C4.07839 5.69847 2.66453 4.55811 1.5312 3.16384C0.954001 4.1575 0.777216 5.3338 1.03684 6.45323C1.29647 7.57265 1.97298 8.55105 2.92864 9.1892C2.2103 9.16815 1.50759 8.97436 0.88 8.62424V8.68144C0.880285 9.72355 1.24103 10.7335 1.90105 11.5399C2.56107 12.3464 3.47972 12.8997 4.5012 13.1061C3.83669 13.2873 3.13947 13.3138 2.46312 13.1835C2.75166 14.0803 3.31323 14.8645 4.0693 15.4265C4.82538 15.9886 5.73817 16.3003 6.68008 16.3181C5.74424 17.0537 4.67254 17.5976 3.5263 17.9186C2.38006 18.2396 1.18178 18.3315 0 18.189C2.06418 19.5136 4.46593 20.2162 6.91856 20.213" fill="#1DA1F2"/>
</svg>